# Blender v2.90.0 Beta OBJ File: ''
# www.blender.org
mtllib untitled-L_shape.mtl
o L_shape_Cube
v 0.000000 1.000000 -1.000000
v 0.000000 0.000000 -1.000000
v 0.000000 1.000000 1.000000
v 0.000000 0.000000 1.000000
v -1.000000 1.000000 -1.000000
v -1.000000 0.000000 -1.000000
v -1.000000 1.000000 1.000000
v -1.000000 0.000000 1.000000
v -1.000000 0.000000 0.000000
v 0.000000 1.000000 0.000000
v -1.000000 1.000000 0.000000
v 0.000000 0.000000 0.000000
v 1.000000 1.000000 1.000000
v 1.000000 0.000000 1.000000
v 1.000000 1.000000 0.000000
v 1.000000 0.000000 0.000000
vt 0.625000 0.625000
vt 0.875000 0.625000
vt 0.875000 0.750000
vt 0.625000 0.750000
vt 0.375000 0.750000
vt 0.625000 1.000000
vt 0.375000 1.000000
vt 0.375000 0.125000
vt 0.625000 0.125000
vt 0.625000 0.250000
vt 0.375000 0.250000
vt 0.125000 0.625000
vt 0.375000 0.625000
vt 0.125000 0.750000
vt 0.375000 0.750000
vt 0.625000 0.750000
vt 0.625000 0.500000
vt 0.375000 0.500000
vt 0.125000 0.500000
vt 0.375000 0.000000
vt 0.625000 0.000000
vt 0.875000 0.500000
vt 0.375000 0.625000
vt 0.625000 0.625000
vn 0.0000 1.0000 0.0000
vn 0.0000 0.0000 1.0000
vn -1.0000 0.0000 0.0000
vn 0.0000 -1.0000 0.0000
vn 0.0000 0.0000 -1.0000
vn 1.0000 0.0000 0.0000
usemtl Material
s off
f 10/1/1 11/2/1 7/3/1 3/4/1
f 4/5/2 3/4/2 7/6/2 8/7/2
f 9/8/3 11/9/3 5/10/3 6/11/3
f 9/12/4 12/13/4 4/5/4 8/14/4
f 3/4/2 4/5/2 14/15/2 13/16/2
f 6/11/5 5/10/5 1/17/5 2/18/5
f 2/18/6 1/17/6 10/1/6 12/13/6
f 6/19/4 2/18/4 12/13/4 9/12/4
f 8/20/3 7/21/3 11/9/3 9/8/3
f 1/17/1 5/22/1 11/2/1 10/1/1
f 16/23/6 15/24/6 13/16/6 14/15/6
f 4/5/4 12/13/4 16/23/4 14/15/4
f 10/1/1 3/4/1 13/16/1 15/24/1
f 12/13/5 10/1/5 15/24/5 16/23/5
